<?xml version="1.0" encoding="utf-8" standalone="no"?>
<!DOCTYPE svg PUBLIC "-//W3C//DTD SVG 1.1//EN"
  "http://www.w3.org/Graphics/SVG/1.1/DTD/svg11.dtd">
<svg xmlns:xlink="http://www.w3.org/1999/xlink" width="1152pt" height="648pt" viewBox="0 0 1152 648" xmlns="http://www.w3.org/2000/svg" version="1.1">
 <metadata>
  <rdf:RDF xmlns:dc="http://purl.org/dc/elements/1.1/" xmlns:cc="http://creativecommons.org/ns#" xmlns:rdf="http://www.w3.org/1999/02/22-rdf-syntax-ns#">
   <cc:Work>
    <dc:type rdf:resource="http://purl.org/dc/dcmitype/StillImage"/>
    <dc:date>2022-08-17T23:46:49.633848</dc:date>
    <dc:format>image/svg+xml</dc:format>
    <dc:creator>
     <cc:Agent>
      <dc:title>Matplotlib v3.5.1, https://matplotlib.org/</dc:title>
     </cc:Agent>
    </dc:creator>
   </cc:Work>
  </rdf:RDF>
 </metadata>
 <defs>
  <style type="text/css">*{stroke-linejoin: round; stroke-linecap: butt}</style>
 </defs>
 <g id="figure_1">
  <g id="patch_1">
   <path d="M 0 648 
L 1152 648 
L 1152 0 
L 0 0 
z
" style="fill: #ffffff"/>
  </g>
  <g id="axes_1">
   <g id="patch_2">
    <path d="M 113.0125 595.725 
L 1060.844318 595.725 
L 1060.844318 49.05 
L 113.0125 49.05 
z
" style="fill: #ffffff"/>
   </g>
   <g id="PathCollection_1">
    <defs>
     <path id="C0_0_2819658a2f" d="M 0 3 
C 0.795609 3 1.55874 2.683901 2.12132 2.12132 
C 2.683901 1.55874 3 0.795609 3 -0 
C 3 -0.795609 2.683901 -1.55874 2.12132 -2.12132 
C 1.55874 -2.683901 0.795609 -3 0 -3 
C -0.795609 -3 -1.55874 -2.683901 -2.12132 -2.12132 
C -2.683901 -1.55874 -3 -0.795609 -3 0 
C -3 0.795609 -2.683901 1.55874 -2.12132 2.12132 
C -1.55874 2.683901 -0.795609 3 0 3 
z
"/>
    </defs>
    <g clip-path="url(#pb3acef35be)">
     <use xlink:href="#C0_0_2819658a2f" x="955.119815" y="329.05755" style="fill: #d62728; stroke: #d62728"/>
    </g>
    <g clip-path="url(#pb3acef35be)">
     <use xlink:href="#C0_0_2819658a2f" x="888.71956" y="160.688584" style="fill: #7f7f7f; stroke: #7f7f7f"/>
    </g>
    <g clip-path="url(#pb3acef35be)">
     <use xlink:href="#C0_0_2819658a2f" x="946.570705" y="429.020217" style="fill: #bcbd22; stroke: #bcbd22"/>
    </g>
    <g clip-path="url(#pb3acef35be)">
     <use xlink:href="#C0_0_2819658a2f" x="588.945106" y="95.393756" style="fill: #17becf; stroke: #17becf"/>
    </g>
    <g clip-path="url(#pb3acef35be)">
     <use xlink:href="#C0_0_2819658a2f" x="761.836552" y="73.898864" style="fill: #9467bd; stroke: #9467bd"/>
    </g>
    <g clip-path="url(#pb3acef35be)">
     <use xlink:href="#C0_0_2819658a2f" x="610.361908" y="345.950769" style="fill: #17becf; stroke: #17becf"/>
    </g>
    <g clip-path="url(#pb3acef35be)">
     <use xlink:href="#C0_0_2819658a2f" x="592.204367" y="290.971047" style="fill: #9467bd; stroke: #9467bd"/>
    </g>
    <g clip-path="url(#pb3acef35be)">
     <use xlink:href="#C0_0_2819658a2f" x="802.428815" y="409.624976" style="fill: #ff7f0e; stroke: #ff7f0e"/>
    </g>
    <g clip-path="url(#pb3acef35be)">
     <use xlink:href="#C0_0_2819658a2f" x="787.182687" y="334.009538" style="fill: #bcbd22; stroke: #bcbd22"/>
    </g>
    <g clip-path="url(#pb3acef35be)">
     <use xlink:href="#C0_0_2819658a2f" x="1017.761054" y="266.175464" style="fill: #d62728; stroke: #d62728"/>
    </g>
    <g clip-path="url(#pb3acef35be)">
     <use xlink:href="#C0_0_2819658a2f" x="824.909488" y="523.899031" style="fill: #d62728; stroke: #d62728"/>
    </g>
    <g clip-path="url(#pb3acef35be)">
     <use xlink:href="#C0_0_2819658a2f" x="743.331294" y="184.880507" style="fill: #8c564b; stroke: #8c564b"/>
    </g>
    <g clip-path="url(#pb3acef35be)">
     <use xlink:href="#C0_0_2819658a2f" x="609.901788" y="171.209401" style="fill: #8c564b; stroke: #8c564b"/>
    </g>
    <g clip-path="url(#pb3acef35be)">
     <use xlink:href="#C0_0_2819658a2f" x="390.480677" y="570.876136" style="fill: #2ca02c; stroke: #2ca02c"/>
    </g>
    <g clip-path="url(#pb3acef35be)">
     <use xlink:href="#C0_0_2819658a2f" x="510.428105" y="528.043461" style="fill: #1f77b4; stroke: #1f77b4"/>
    </g>
    <g clip-path="url(#pb3acef35be)">
     <use xlink:href="#C0_0_2819658a2f" x="702.436082" y="370.009796" style="fill: #7f7f7f; stroke: #7f7f7f"/>
    </g>
    <g clip-path="url(#pb3acef35be)">
     <use xlink:href="#C0_0_2819658a2f" x="704.359385" y="441.923396" style="fill: #9467bd; stroke: #9467bd"/>
    </g>
    <g clip-path="url(#pb3acef35be)">
     <use xlink:href="#C0_0_2819658a2f" x="522.174848" y="323.76652" style="fill: #9467bd; stroke: #9467bd"/>
    </g>
    <g clip-path="url(#pb3acef35be)">
     <use xlink:href="#C0_0_2819658a2f" x="655.343859" y="536.004492" style="fill: #e377c2; stroke: #e377c2"/>
    </g>
    <g clip-path="url(#pb3acef35be)">
     <use xlink:href="#C0_0_2819658a2f" x="280.787335" y="281.381934" style="fill: #e377c2; stroke: #e377c2"/>
    </g>
    <g clip-path="url(#pb3acef35be)">
     <use xlink:href="#C0_0_2819658a2f" x="413.503241" y="469.606985" style="fill: #2ca02c; stroke: #2ca02c"/>
    </g>
    <g clip-path="url(#pb3acef35be)">
     <use xlink:href="#C0_0_2819658a2f" x="839.746826" y="262.259417" style="fill: #1f77b4; stroke: #1f77b4"/>
    </g>
    <g clip-path="url(#pb3acef35be)">
     <use xlink:href="#C0_0_2819658a2f" x="748.942885" y="263.939915" style="fill: #1f77b4; stroke: #1f77b4"/>
    </g>
    <g clip-path="url(#pb3acef35be)">
     <use xlink:href="#C0_0_2819658a2f" x="616.001749" y="399.584105" style="fill: #1f77b4; stroke: #1f77b4"/>
    </g>
    <g clip-path="url(#pb3acef35be)">
     <use xlink:href="#C0_0_2819658a2f" x="432.599371" y="146.452816" style="fill: #8c564b; stroke: #8c564b"/>
    </g>
    <g clip-path="url(#pb3acef35be)">
     <use xlink:href="#C0_0_2819658a2f" x="656.239268" y="244.280032" style="fill: #bcbd22; stroke: #bcbd22"/>
    </g>
    <g clip-path="url(#pb3acef35be)">
     <use xlink:href="#C0_0_2819658a2f" x="277.820999" y="469.393207" style="fill: #8c564b; stroke: #8c564b"/>
    </g>
    <g clip-path="url(#pb3acef35be)">
     <use xlink:href="#C0_0_2819658a2f" x="428.861581" y="396.573916" style="fill: #ff7f0e; stroke: #ff7f0e"/>
    </g>
    <g clip-path="url(#pb3acef35be)">
     <use xlink:href="#C0_0_2819658a2f" x="679.72083" y="310.793609" style="fill: #ff7f0e; stroke: #ff7f0e"/>
    </g>
    <g clip-path="url(#pb3acef35be)">
     <use xlink:href="#C0_0_2819658a2f" x="264.821562" y="396.143309" style="fill: #2ca02c; stroke: #2ca02c"/>
    </g>
    <g clip-path="url(#pb3acef35be)">
     <use xlink:href="#C0_0_2819658a2f" x="481.672411" y="209.22899" style="fill: #d62728; stroke: #d62728"/>
    </g>
    <g clip-path="url(#pb3acef35be)">
     <use xlink:href="#C0_0_2819658a2f" x="563.104674" y="236.981085" style="fill: #1f77b4; stroke: #1f77b4"/>
    </g>
    <g clip-path="url(#pb3acef35be)">
     <use xlink:href="#C0_0_2819658a2f" x="488.675616" y="272.288443" style="fill: #1f77b4; stroke: #1f77b4"/>
    </g>
    <g clip-path="url(#pb3acef35be)">
     <use xlink:href="#C0_0_2819658a2f" x="352.951925" y="218.152063" style="fill: #2ca02c; stroke: #2ca02c"/>
    </g>
    <g clip-path="url(#pb3acef35be)">
     <use xlink:href="#C0_0_2819658a2f" x="597.026988" y="458.436642" style="fill: #7f7f7f; stroke: #7f7f7f"/>
    </g>
    <g clip-path="url(#pb3acef35be)">
     <use xlink:href="#C0_0_2819658a2f" x="510.821804" y="439.064409" style="fill: #17becf; stroke: #17becf"/>
    </g>
    <g clip-path="url(#pb3acef35be)">
     <use xlink:href="#C0_0_2819658a2f" x="156.095764" y="324.410402" style="fill: #2ca02c; stroke: #2ca02c"/>
    </g>
    <g clip-path="url(#pb3acef35be)">
     <use xlink:href="#C0_0_2819658a2f" x="397.519228" y="283.936336" style="fill: #e377c2; stroke: #e377c2"/>
    </g>
    <g clip-path="url(#pb3acef35be)">
     <use xlink:href="#C0_0_2819658a2f" x="337.861103" y="340.107551" style="fill: #e377c2; stroke: #e377c2"/>
    </g>
    <g clip-path="url(#pb3acef35be)">
     <use xlink:href="#C0_0_2819658a2f" x="527.078648" y="379.405968" style="fill: #ff7f0e; stroke: #ff7f0e"/>
    </g>
    <g clip-path="url(#pb3acef35be)">
     <use xlink:href="#C0_0_2819658a2f" x="442.696489" y="339.394872" style="fill: #ff7f0e; stroke: #ff7f0e"/>
    </g>
   </g>
   <g id="matplotlib.axis_1">
    <g id="xtick_1">
     <g id="line2d_1">
      <defs>
       <path id="m56bdc90cd0" d="M 0 0 
L 0 3.5 
" style="stroke: #000000; stroke-width: 0.8"/>
      </defs>
      <g>
       <use xlink:href="#m56bdc90cd0" x="128.736948" y="595.725" style="stroke: #000000; stroke-width: 0.8"/>
      </g>
     </g>
     <g id="text_1">
      <!-- −150 -->
      <g transform="translate(115.003355 610.323437)scale(0.1 -0.1)">
       <defs>
        <path id="DejaVuSans-2212" d="M 678 2272 
L 4684 2272 
L 4684 1741 
L 678 1741 
L 678 2272 
z
" transform="scale(0.015625)"/>
        <path id="DejaVuSans-31" d="M 794 531 
L 1825 531 
L 1825 4091 
L 703 3866 
L 703 4441 
L 1819 4666 
L 2450 4666 
L 2450 531 
L 3481 531 
L 3481 0 
L 794 0 
L 794 531 
z
" transform="scale(0.015625)"/>
        <path id="DejaVuSans-35" d="M 691 4666 
L 3169 4666 
L 3169 4134 
L 1269 4134 
L 1269 2991 
Q 1406 3038 1543 3061 
Q 1681 3084 1819 3084 
Q 2600 3084 3056 2656 
Q 3513 2228 3513 1497 
Q 3513 744 3044 326 
Q 2575 -91 1722 -91 
Q 1428 -91 1123 -41 
Q 819 9 494 109 
L 494 744 
Q 775 591 1075 516 
Q 1375 441 1709 441 
Q 2250 441 2565 725 
Q 2881 1009 2881 1497 
Q 2881 1984 2565 2268 
Q 2250 2553 1709 2553 
Q 1456 2553 1204 2497 
Q 953 2441 691 2322 
L 691 4666 
z
" transform="scale(0.015625)"/>
        <path id="DejaVuSans-30" d="M 2034 4250 
Q 1547 4250 1301 3770 
Q 1056 3291 1056 2328 
Q 1056 1369 1301 889 
Q 1547 409 2034 409 
Q 2525 409 2770 889 
Q 3016 1369 3016 2328 
Q 3016 3291 2770 3770 
Q 2525 4250 2034 4250 
z
M 2034 4750 
Q 2819 4750 3233 4129 
Q 3647 3509 3647 2328 
Q 3647 1150 3233 529 
Q 2819 -91 2034 -91 
Q 1250 -91 836 529 
Q 422 1150 422 2328 
Q 422 3509 836 4129 
Q 1250 4750 2034 4750 
z
" transform="scale(0.015625)"/>
       </defs>
       <use xlink:href="#DejaVuSans-2212"/>
       <use xlink:href="#DejaVuSans-31" x="83.789062"/>
       <use xlink:href="#DejaVuSans-35" x="147.412109"/>
       <use xlink:href="#DejaVuSans-30" x="211.035156"/>
      </g>
     </g>
    </g>
    <g id="xtick_2">
     <g id="line2d_2">
      <g>
       <use xlink:href="#m56bdc90cd0" x="287.176206" y="595.725" style="stroke: #000000; stroke-width: 0.8"/>
      </g>
     </g>
     <g id="text_2">
      <!-- −100 -->
      <g transform="translate(273.442613 610.323437)scale(0.1 -0.1)">
       <use xlink:href="#DejaVuSans-2212"/>
       <use xlink:href="#DejaVuSans-31" x="83.789062"/>
       <use xlink:href="#DejaVuSans-30" x="147.412109"/>
       <use xlink:href="#DejaVuSans-30" x="211.035156"/>
      </g>
     </g>
    </g>
    <g id="xtick_3">
     <g id="line2d_3">
      <g>
       <use xlink:href="#m56bdc90cd0" x="445.615464" y="595.725" style="stroke: #000000; stroke-width: 0.8"/>
      </g>
     </g>
     <g id="text_3">
      <!-- −50 -->
      <g transform="translate(435.06312 610.323437)scale(0.1 -0.1)">
       <use xlink:href="#DejaVuSans-2212"/>
       <use xlink:href="#DejaVuSans-35" x="83.789062"/>
       <use xlink:href="#DejaVuSans-30" x="147.412109"/>
      </g>
     </g>
    </g>
    <g id="xtick_4">
     <g id="line2d_4">
      <g>
       <use xlink:href="#m56bdc90cd0" x="604.054722" y="595.725" style="stroke: #000000; stroke-width: 0.8"/>
      </g>
     </g>
     <g id="text_4">
      <!-- 0 -->
      <g transform="translate(600.873472 610.323437)scale(0.1 -0.1)">
       <use xlink:href="#DejaVuSans-30"/>
      </g>
     </g>
    </g>
    <g id="xtick_5">
     <g id="line2d_5">
      <g>
       <use xlink:href="#m56bdc90cd0" x="762.49398" y="595.725" style="stroke: #000000; stroke-width: 0.8"/>
      </g>
     </g>
     <g id="text_5">
      <!-- 50 -->
      <g transform="translate(756.13148 610.323437)scale(0.1 -0.1)">
       <use xlink:href="#DejaVuSans-35"/>
       <use xlink:href="#DejaVuSans-30" x="63.623047"/>
      </g>
     </g>
    </g>
    <g id="xtick_6">
     <g id="line2d_6">
      <g>
       <use xlink:href="#m56bdc90cd0" x="920.933238" y="595.725" style="stroke: #000000; stroke-width: 0.8"/>
      </g>
     </g>
     <g id="text_6">
      <!-- 100 -->
      <g transform="translate(911.389488 610.323437)scale(0.1 -0.1)">
       <use xlink:href="#DejaVuSans-31"/>
       <use xlink:href="#DejaVuSans-30" x="63.623047"/>
       <use xlink:href="#DejaVuSans-30" x="127.246094"/>
      </g>
     </g>
    </g>
   </g>
   <g id="matplotlib.axis_2">
    <g id="ytick_1">
     <g id="line2d_7">
      <defs>
       <path id="mbf43a1777e" d="M 0 0 
L -3.5 0 
" style="stroke: #000000; stroke-width: 0.8"/>
      </defs>
      <g>
       <use xlink:href="#mbf43a1777e" x="113.0125" y="528.306415" style="stroke: #000000; stroke-width: 0.8"/>
      </g>
     </g>
     <g id="text_7">
      <!-- −100 -->
      <g transform="translate(78.545312 532.105634)scale(0.1 -0.1)">
       <use xlink:href="#DejaVuSans-2212"/>
       <use xlink:href="#DejaVuSans-31" x="83.789062"/>
       <use xlink:href="#DejaVuSans-30" x="147.412109"/>
       <use xlink:href="#DejaVuSans-30" x="211.035156"/>
      </g>
     </g>
    </g>
    <g id="ytick_2">
     <g id="line2d_8">
      <g>
       <use xlink:href="#mbf43a1777e" x="113.0125" y="426.834695" style="stroke: #000000; stroke-width: 0.8"/>
      </g>
     </g>
     <g id="text_8">
      <!-- −50 -->
      <g transform="translate(84.907813 430.633914)scale(0.1 -0.1)">
       <use xlink:href="#DejaVuSans-2212"/>
       <use xlink:href="#DejaVuSans-35" x="83.789062"/>
       <use xlink:href="#DejaVuSans-30" x="147.412109"/>
      </g>
     </g>
    </g>
    <g id="ytick_3">
     <g id="line2d_9">
      <g>
       <use xlink:href="#mbf43a1777e" x="113.0125" y="325.362975" style="stroke: #000000; stroke-width: 0.8"/>
      </g>
     </g>
     <g id="text_9">
      <!-- 0 -->
      <g transform="translate(99.65 329.162194)scale(0.1 -0.1)">
       <use xlink:href="#DejaVuSans-30"/>
      </g>
     </g>
    </g>
    <g id="ytick_4">
     <g id="line2d_10">
      <g>
       <use xlink:href="#mbf43a1777e" x="113.0125" y="223.891255" style="stroke: #000000; stroke-width: 0.8"/>
      </g>
     </g>
     <g id="text_10">
      <!-- 50 -->
      <g transform="translate(93.2875 227.690474)scale(0.1 -0.1)">
       <use xlink:href="#DejaVuSans-35"/>
       <use xlink:href="#DejaVuSans-30" x="63.623047"/>
      </g>
     </g>
    </g>
    <g id="ytick_5">
     <g id="line2d_11">
      <g>
       <use xlink:href="#mbf43a1777e" x="113.0125" y="122.419535" style="stroke: #000000; stroke-width: 0.8"/>
      </g>
     </g>
     <g id="text_11">
      <!-- 100 -->
      <g transform="translate(86.925 126.218754)scale(0.1 -0.1)">
       <use xlink:href="#DejaVuSans-31"/>
       <use xlink:href="#DejaVuSans-30" x="63.623047"/>
       <use xlink:href="#DejaVuSans-30" x="127.246094"/>
      </g>
     </g>
    </g>
   </g>
   <g id="patch_3">
    <path d="M 113.0125 595.725 
L 113.0125 49.05 
" style="fill: none; stroke: #000000; stroke-width: 0.8; stroke-linejoin: miter; stroke-linecap: square"/>
   </g>
   <g id="patch_4">
    <path d="M 1060.844318 595.725 
L 1060.844318 49.05 
" style="fill: none; stroke: #000000; stroke-width: 0.8; stroke-linejoin: miter; stroke-linecap: square"/>
   </g>
   <g id="patch_5">
    <path d="M 113.0125 595.725 
L 1060.844318 595.725 
" style="fill: none; stroke: #000000; stroke-width: 0.8; stroke-linejoin: miter; stroke-linecap: square"/>
   </g>
   <g id="patch_6">
    <path d="M 113.0125 49.05 
L 1060.844318 49.05 
" style="fill: none; stroke: #000000; stroke-width: 0.8; stroke-linejoin: miter; stroke-linecap: square"/>
   </g>
   <g id="text_12">
    <!-- AlAsGa -->
    <g transform="translate(955.119815 329.05755)scale(0.1 -0.1)">
     <defs>
      <path id="DejaVuSans-41" d="M 2188 4044 
L 1331 1722 
L 3047 1722 
L 2188 4044 
z
M 1831 4666 
L 2547 4666 
L 4325 0 
L 3669 0 
L 3244 1197 
L 1141 1197 
L 716 0 
L 50 0 
L 1831 4666 
z
" transform="scale(0.015625)"/>
      <path id="DejaVuSans-6c" d="M 603 4863 
L 1178 4863 
L 1178 0 
L 603 0 
L 603 4863 
z
" transform="scale(0.015625)"/>
      <path id="DejaVuSans-73" d="M 2834 3397 
L 2834 2853 
Q 2591 2978 2328 3040 
Q 2066 3103 1784 3103 
Q 1356 3103 1142 2972 
Q 928 2841 928 2578 
Q 928 2378 1081 2264 
Q 1234 2150 1697 2047 
L 1894 2003 
Q 2506 1872 2764 1633 
Q 3022 1394 3022 966 
Q 3022 478 2636 193 
Q 2250 -91 1575 -91 
Q 1294 -91 989 -36 
Q 684 19 347 128 
L 347 722 
Q 666 556 975 473 
Q 1284 391 1588 391 
Q 1994 391 2212 530 
Q 2431 669 2431 922 
Q 2431 1156 2273 1281 
Q 2116 1406 1581 1522 
L 1381 1569 
Q 847 1681 609 1914 
Q 372 2147 372 2553 
Q 372 3047 722 3315 
Q 1072 3584 1716 3584 
Q 2034 3584 2315 3537 
Q 2597 3491 2834 3397 
z
" transform="scale(0.015625)"/>
      <path id="DejaVuSans-47" d="M 3809 666 
L 3809 1919 
L 2778 1919 
L 2778 2438 
L 4434 2438 
L 4434 434 
Q 4069 175 3628 42 
Q 3188 -91 2688 -91 
Q 1594 -91 976 548 
Q 359 1188 359 2328 
Q 359 3472 976 4111 
Q 1594 4750 2688 4750 
Q 3144 4750 3555 4637 
Q 3966 4525 4313 4306 
L 4313 3634 
Q 3963 3931 3569 4081 
Q 3175 4231 2741 4231 
Q 1884 4231 1454 3753 
Q 1025 3275 1025 2328 
Q 1025 1384 1454 906 
Q 1884 428 2741 428 
Q 3075 428 3337 486 
Q 3600 544 3809 666 
z
" transform="scale(0.015625)"/>
      <path id="DejaVuSans-61" d="M 2194 1759 
Q 1497 1759 1228 1600 
Q 959 1441 959 1056 
Q 959 750 1161 570 
Q 1363 391 1709 391 
Q 2188 391 2477 730 
Q 2766 1069 2766 1631 
L 2766 1759 
L 2194 1759 
z
M 3341 1997 
L 3341 0 
L 2766 0 
L 2766 531 
Q 2569 213 2275 61 
Q 1981 -91 1556 -91 
Q 1019 -91 701 211 
Q 384 513 384 1019 
Q 384 1609 779 1909 
Q 1175 2209 1959 2209 
L 2766 2209 
L 2766 2266 
Q 2766 2663 2505 2880 
Q 2244 3097 1772 3097 
Q 1472 3097 1187 3025 
Q 903 2953 641 2809 
L 641 3341 
Q 956 3463 1253 3523 
Q 1550 3584 1831 3584 
Q 2591 3584 2966 3190 
Q 3341 2797 3341 1997 
z
" transform="scale(0.015625)"/>
     </defs>
     <use xlink:href="#DejaVuSans-41"/>
     <use xlink:href="#DejaVuSans-6c" x="68.408203"/>
     <use xlink:href="#DejaVuSans-41" x="96.191406"/>
     <use xlink:href="#DejaVuSans-73" x="164.599609"/>
     <use xlink:href="#DejaVuSans-47" x="216.699219"/>
     <use xlink:href="#DejaVuSans-61" x="294.189453"/>
    </g>
   </g>
   <g id="text_13">
    <!-- AlMgZn -->
    <g transform="translate(888.71956 160.688584)scale(0.1 -0.1)">
     <defs>
      <path id="DejaVuSans-4d" d="M 628 4666 
L 1569 4666 
L 2759 1491 
L 3956 4666 
L 4897 4666 
L 4897 0 
L 4281 0 
L 4281 4097 
L 3078 897 
L 2444 897 
L 1241 4097 
L 1241 0 
L 628 0 
L 628 4666 
z
" transform="scale(0.015625)"/>
      <path id="DejaVuSans-67" d="M 2906 1791 
Q 2906 2416 2648 2759 
Q 2391 3103 1925 3103 
Q 1463 3103 1205 2759 
Q 947 2416 947 1791 
Q 947 1169 1205 825 
Q 1463 481 1925 481 
Q 2391 481 2648 825 
Q 2906 1169 2906 1791 
z
M 3481 434 
Q 3481 -459 3084 -895 
Q 2688 -1331 1869 -1331 
Q 1566 -1331 1297 -1286 
Q 1028 -1241 775 -1147 
L 775 -588 
Q 1028 -725 1275 -790 
Q 1522 -856 1778 -856 
Q 2344 -856 2625 -561 
Q 2906 -266 2906 331 
L 2906 616 
Q 2728 306 2450 153 
Q 2172 0 1784 0 
Q 1141 0 747 490 
Q 353 981 353 1791 
Q 353 2603 747 3093 
Q 1141 3584 1784 3584 
Q 2172 3584 2450 3431 
Q 2728 3278 2906 2969 
L 2906 3500 
L 3481 3500 
L 3481 434 
z
" transform="scale(0.015625)"/>
      <path id="DejaVuSans-5a" d="M 359 4666 
L 4025 4666 
L 4025 4184 
L 1075 531 
L 4097 531 
L 4097 0 
L 288 0 
L 288 481 
L 3238 4134 
L 359 4134 
L 359 4666 
z
" transform="scale(0.015625)"/>
      <path id="DejaVuSans-6e" d="M 3513 2113 
L 3513 0 
L 2938 0 
L 2938 2094 
Q 2938 2591 2744 2837 
Q 2550 3084 2163 3084 
Q 1697 3084 1428 2787 
Q 1159 2491 1159 1978 
L 1159 0 
L 581 0 
L 581 3500 
L 1159 3500 
L 1159 2956 
Q 1366 3272 1645 3428 
Q 1925 3584 2291 3584 
Q 2894 3584 3203 3211 
Q 3513 2838 3513 2113 
z
" transform="scale(0.015625)"/>
     </defs>
     <use xlink:href="#DejaVuSans-41"/>
     <use xlink:href="#DejaVuSans-6c" x="68.408203"/>
     <use xlink:href="#DejaVuSans-4d" x="96.191406"/>
     <use xlink:href="#DejaVuSans-67" x="182.470703"/>
     <use xlink:href="#DejaVuSans-5a" x="245.947266"/>
     <use xlink:href="#DejaVuSans-6e" x="314.453125"/>
    </g>
   </g>
   <g id="text_14">
    <!-- AlMgTi -->
    <g transform="translate(946.570705 429.020217)scale(0.1 -0.1)">
     <defs>
      <path id="DejaVuSans-54" d="M -19 4666 
L 3928 4666 
L 3928 4134 
L 2272 4134 
L 2272 0 
L 1638 0 
L 1638 4134 
L -19 4134 
L -19 4666 
z
" transform="scale(0.015625)"/>
      <path id="DejaVuSans-69" d="M 603 3500 
L 1178 3500 
L 1178 0 
L 603 0 
L 603 3500 
z
M 603 4863 
L 1178 4863 
L 1178 4134 
L 603 4134 
L 603 4863 
z
" transform="scale(0.015625)"/>
     </defs>
     <use xlink:href="#DejaVuSans-41"/>
     <use xlink:href="#DejaVuSans-6c" x="68.408203"/>
     <use xlink:href="#DejaVuSans-4d" x="96.191406"/>
     <use xlink:href="#DejaVuSans-67" x="182.470703"/>
     <use xlink:href="#DejaVuSans-54" x="245.947266"/>
     <use xlink:href="#DejaVuSans-69" x="303.90625"/>
    </g>
   </g>
   <g id="text_15">
    <!-- AlTiZn -->
    <g transform="translate(588.945106 95.393756)scale(0.1 -0.1)">
     <use xlink:href="#DejaVuSans-41"/>
     <use xlink:href="#DejaVuSans-6c" x="68.408203"/>
     <use xlink:href="#DejaVuSans-54" x="96.191406"/>
     <use xlink:href="#DejaVuSans-69" x="154.150391"/>
     <use xlink:href="#DejaVuSans-5a" x="181.933594"/>
     <use xlink:href="#DejaVuSans-6e" x="250.439453"/>
    </g>
   </g>
   <g id="text_16">
    <!-- AsGaMn -->
    <g transform="translate(761.836552 73.898864)scale(0.1 -0.1)">
     <use xlink:href="#DejaVuSans-41"/>
     <use xlink:href="#DejaVuSans-73" x="68.408203"/>
     <use xlink:href="#DejaVuSans-47" x="120.507812"/>
     <use xlink:href="#DejaVuSans-61" x="197.998047"/>
     <use xlink:href="#DejaVuSans-4d" x="259.277344"/>
     <use xlink:href="#DejaVuSans-6e" x="345.556641"/>
    </g>
   </g>
   <g id="text_17">
    <!-- Al2TiZn -->
    <g transform="translate(610.361908 345.950769)scale(0.1 -0.1)">
     <defs>
      <path id="DejaVuSans-32" d="M 1228 531 
L 3431 531 
L 3431 0 
L 469 0 
L 469 531 
Q 828 903 1448 1529 
Q 2069 2156 2228 2338 
Q 2531 2678 2651 2914 
Q 2772 3150 2772 3378 
Q 2772 3750 2511 3984 
Q 2250 4219 1831 4219 
Q 1534 4219 1204 4116 
Q 875 4013 500 3803 
L 500 4441 
Q 881 4594 1212 4672 
Q 1544 4750 1819 4750 
Q 2544 4750 2975 4387 
Q 3406 4025 3406 3419 
Q 3406 3131 3298 2873 
Q 3191 2616 2906 2266 
Q 2828 2175 2409 1742 
Q 1991 1309 1228 531 
z
" transform="scale(0.015625)"/>
     </defs>
     <use xlink:href="#DejaVuSans-41"/>
     <use xlink:href="#DejaVuSans-6c" x="68.408203"/>
     <use xlink:href="#DejaVuSans-32" x="96.191406"/>
     <use xlink:href="#DejaVuSans-54" x="159.814453"/>
     <use xlink:href="#DejaVuSans-69" x="217.773438"/>
     <use xlink:href="#DejaVuSans-5a" x="245.556641"/>
     <use xlink:href="#DejaVuSans-6e" x="314.0625"/>
    </g>
   </g>
   <g id="text_18">
    <!-- AsGaMn2 -->
    <g transform="translate(592.204367 290.971047)scale(0.1 -0.1)">
     <use xlink:href="#DejaVuSans-41"/>
     <use xlink:href="#DejaVuSans-73" x="68.408203"/>
     <use xlink:href="#DejaVuSans-47" x="120.507812"/>
     <use xlink:href="#DejaVuSans-61" x="197.998047"/>
     <use xlink:href="#DejaVuSans-4d" x="259.277344"/>
     <use xlink:href="#DejaVuSans-6e" x="345.556641"/>
     <use xlink:href="#DejaVuSans-32" x="408.935547"/>
    </g>
   </g>
   <g id="text_19">
    <!-- GaRhZr -->
    <g transform="translate(802.428815 409.624976)scale(0.1 -0.1)">
     <defs>
      <path id="DejaVuSans-52" d="M 2841 2188 
Q 3044 2119 3236 1894 
Q 3428 1669 3622 1275 
L 4263 0 
L 3584 0 
L 2988 1197 
Q 2756 1666 2539 1819 
Q 2322 1972 1947 1972 
L 1259 1972 
L 1259 0 
L 628 0 
L 628 4666 
L 2053 4666 
Q 2853 4666 3247 4331 
Q 3641 3997 3641 3322 
Q 3641 2881 3436 2590 
Q 3231 2300 2841 2188 
z
M 1259 4147 
L 1259 2491 
L 2053 2491 
Q 2509 2491 2742 2702 
Q 2975 2913 2975 3322 
Q 2975 3731 2742 3939 
Q 2509 4147 2053 4147 
L 1259 4147 
z
" transform="scale(0.015625)"/>
      <path id="DejaVuSans-68" d="M 3513 2113 
L 3513 0 
L 2938 0 
L 2938 2094 
Q 2938 2591 2744 2837 
Q 2550 3084 2163 3084 
Q 1697 3084 1428 2787 
Q 1159 2491 1159 1978 
L 1159 0 
L 581 0 
L 581 4863 
L 1159 4863 
L 1159 2956 
Q 1366 3272 1645 3428 
Q 1925 3584 2291 3584 
Q 2894 3584 3203 3211 
Q 3513 2838 3513 2113 
z
" transform="scale(0.015625)"/>
      <path id="DejaVuSans-72" d="M 2631 2963 
Q 2534 3019 2420 3045 
Q 2306 3072 2169 3072 
Q 1681 3072 1420 2755 
Q 1159 2438 1159 1844 
L 1159 0 
L 581 0 
L 581 3500 
L 1159 3500 
L 1159 2956 
Q 1341 3275 1631 3429 
Q 1922 3584 2338 3584 
Q 2397 3584 2469 3576 
Q 2541 3569 2628 3553 
L 2631 2963 
z
" transform="scale(0.015625)"/>
     </defs>
     <use xlink:href="#DejaVuSans-47"/>
     <use xlink:href="#DejaVuSans-61" x="77.490234"/>
     <use xlink:href="#DejaVuSans-52" x="138.769531"/>
     <use xlink:href="#DejaVuSans-68" x="208.251953"/>
     <use xlink:href="#DejaVuSans-5a" x="271.630859"/>
     <use xlink:href="#DejaVuSans-72" x="340.136719"/>
    </g>
   </g>
   <g id="text_20">
    <!-- AlMgZr -->
    <g transform="translate(787.182687 334.009538)scale(0.1 -0.1)">
     <use xlink:href="#DejaVuSans-41"/>
     <use xlink:href="#DejaVuSans-6c" x="68.408203"/>
     <use xlink:href="#DejaVuSans-4d" x="96.191406"/>
     <use xlink:href="#DejaVuSans-67" x="182.470703"/>
     <use xlink:href="#DejaVuSans-5a" x="245.947266"/>
     <use xlink:href="#DejaVuSans-72" x="314.453125"/>
    </g>
   </g>
   <g id="text_21">
    <!-- AlAs2Ga -->
    <g transform="translate(1017.761054 266.175464)scale(0.1 -0.1)">
     <use xlink:href="#DejaVuSans-41"/>
     <use xlink:href="#DejaVuSans-6c" x="68.408203"/>
     <use xlink:href="#DejaVuSans-41" x="96.191406"/>
     <use xlink:href="#DejaVuSans-73" x="164.599609"/>
     <use xlink:href="#DejaVuSans-32" x="216.699219"/>
     <use xlink:href="#DejaVuSans-47" x="280.322266"/>
     <use xlink:href="#DejaVuSans-61" x="357.8125"/>
    </g>
   </g>
   <g id="text_22">
    <!-- AsBGa -->
    <g transform="translate(824.909488 523.899031)scale(0.1 -0.1)">
     <defs>
      <path id="DejaVuSans-42" d="M 1259 2228 
L 1259 519 
L 2272 519 
Q 2781 519 3026 730 
Q 3272 941 3272 1375 
Q 3272 1813 3026 2020 
Q 2781 2228 2272 2228 
L 1259 2228 
z
M 1259 4147 
L 1259 2741 
L 2194 2741 
Q 2656 2741 2882 2914 
Q 3109 3088 3109 3444 
Q 3109 3797 2882 3972 
Q 2656 4147 2194 4147 
L 1259 4147 
z
M 628 4666 
L 2241 4666 
Q 2963 4666 3353 4366 
Q 3744 4066 3744 3513 
Q 3744 3084 3544 2831 
Q 3344 2578 2956 2516 
Q 3422 2416 3680 2098 
Q 3938 1781 3938 1306 
Q 3938 681 3513 340 
Q 3088 0 2303 0 
L 628 0 
L 628 4666 
z
" transform="scale(0.015625)"/>
     </defs>
     <use xlink:href="#DejaVuSans-41"/>
     <use xlink:href="#DejaVuSans-73" x="68.408203"/>
     <use xlink:href="#DejaVuSans-42" x="120.507812"/>
     <use xlink:href="#DejaVuSans-47" x="187.361328"/>
     <use xlink:href="#DejaVuSans-61" x="264.851562"/>
    </g>
   </g>
   <g id="text_23">
    <!-- AlGaMg -->
    <g transform="translate(743.331294 184.880507)scale(0.1 -0.1)">
     <use xlink:href="#DejaVuSans-41"/>
     <use xlink:href="#DejaVuSans-6c" x="68.408203"/>
     <use xlink:href="#DejaVuSans-47" x="96.191406"/>
     <use xlink:href="#DejaVuSans-61" x="173.681641"/>
     <use xlink:href="#DejaVuSans-4d" x="234.960938"/>
     <use xlink:href="#DejaVuSans-67" x="321.240234"/>
    </g>
   </g>
   <g id="text_24">
    <!-- AlBMg -->
    <g transform="translate(609.901788 171.209401)scale(0.1 -0.1)">
     <use xlink:href="#DejaVuSans-41"/>
     <use xlink:href="#DejaVuSans-6c" x="68.408203"/>
     <use xlink:href="#DejaVuSans-42" x="96.191406"/>
     <use xlink:href="#DejaVuSans-4d" x="164.794922"/>
     <use xlink:href="#DejaVuSans-67" x="251.074219"/>
    </g>
   </g>
   <g id="text_25">
    <!-- AlTiZr -->
    <g transform="translate(390.480677 570.876136)scale(0.1 -0.1)">
     <use xlink:href="#DejaVuSans-41"/>
     <use xlink:href="#DejaVuSans-6c" x="68.408203"/>
     <use xlink:href="#DejaVuSans-54" x="96.191406"/>
     <use xlink:href="#DejaVuSans-69" x="154.150391"/>
     <use xlink:href="#DejaVuSans-5a" x="181.933594"/>
     <use xlink:href="#DejaVuSans-72" x="250.439453"/>
    </g>
   </g>
   <g id="text_26">
    <!-- AgAlTi -->
    <g transform="translate(510.428105 528.043461)scale(0.1 -0.1)">
     <use xlink:href="#DejaVuSans-41"/>
     <use xlink:href="#DejaVuSans-67" x="68.408203"/>
     <use xlink:href="#DejaVuSans-41" x="131.884766"/>
     <use xlink:href="#DejaVuSans-6c" x="200.292969"/>
     <use xlink:href="#DejaVuSans-54" x="228.076172"/>
     <use xlink:href="#DejaVuSans-69" x="286.035156"/>
    </g>
   </g>
   <g id="text_27">
    <!-- AlMgZn2 -->
    <g transform="translate(702.436082 370.009796)scale(0.1 -0.1)">
     <use xlink:href="#DejaVuSans-41"/>
     <use xlink:href="#DejaVuSans-6c" x="68.408203"/>
     <use xlink:href="#DejaVuSans-4d" x="96.191406"/>
     <use xlink:href="#DejaVuSans-67" x="182.470703"/>
     <use xlink:href="#DejaVuSans-5a" x="245.947266"/>
     <use xlink:href="#DejaVuSans-6e" x="314.453125"/>
     <use xlink:href="#DejaVuSans-32" x="377.832031"/>
    </g>
   </g>
   <g id="text_28">
    <!-- AlAsMn -->
    <g transform="translate(704.359385 441.923396)scale(0.1 -0.1)">
     <use xlink:href="#DejaVuSans-41"/>
     <use xlink:href="#DejaVuSans-6c" x="68.408203"/>
     <use xlink:href="#DejaVuSans-41" x="96.191406"/>
     <use xlink:href="#DejaVuSans-73" x="164.599609"/>
     <use xlink:href="#DejaVuSans-4d" x="216.699219"/>
     <use xlink:href="#DejaVuSans-6e" x="302.978516"/>
    </g>
   </g>
   <g id="text_29">
    <!-- As2GaMn -->
    <g transform="translate(522.174848 323.76652)scale(0.1 -0.1)">
     <use xlink:href="#DejaVuSans-41"/>
     <use xlink:href="#DejaVuSans-73" x="68.408203"/>
     <use xlink:href="#DejaVuSans-32" x="120.507812"/>
     <use xlink:href="#DejaVuSans-47" x="184.130859"/>
     <use xlink:href="#DejaVuSans-61" x="261.621094"/>
     <use xlink:href="#DejaVuSans-4d" x="322.900391"/>
     <use xlink:href="#DejaVuSans-6e" x="409.179688"/>
    </g>
   </g>
   <g id="text_30">
    <!-- AlMnZr2 -->
    <g transform="translate(655.343859 536.004492)scale(0.1 -0.1)">
     <use xlink:href="#DejaVuSans-41"/>
     <use xlink:href="#DejaVuSans-6c" x="68.408203"/>
     <use xlink:href="#DejaVuSans-4d" x="96.191406"/>
     <use xlink:href="#DejaVuSans-6e" x="182.470703"/>
     <use xlink:href="#DejaVuSans-5a" x="245.849609"/>
     <use xlink:href="#DejaVuSans-72" x="314.355469"/>
     <use xlink:href="#DejaVuSans-32" x="355.46875"/>
    </g>
   </g>
   <g id="text_31">
    <!-- GaMnZr2 -->
    <g transform="translate(280.787335 281.381934)scale(0.1 -0.1)">
     <use xlink:href="#DejaVuSans-47"/>
     <use xlink:href="#DejaVuSans-61" x="77.490234"/>
     <use xlink:href="#DejaVuSans-4d" x="138.769531"/>
     <use xlink:href="#DejaVuSans-6e" x="225.048828"/>
     <use xlink:href="#DejaVuSans-5a" x="288.427734"/>
     <use xlink:href="#DejaVuSans-72" x="356.933594"/>
     <use xlink:href="#DejaVuSans-32" x="398.046875"/>
    </g>
   </g>
   <g id="text_32">
    <!-- BTiZr -->
    <g transform="translate(413.503241 469.606985)scale(0.1 -0.1)">
     <use xlink:href="#DejaVuSans-42"/>
     <use xlink:href="#DejaVuSans-54" x="68.603516"/>
     <use xlink:href="#DejaVuSans-69" x="126.5625"/>
     <use xlink:href="#DejaVuSans-5a" x="154.345703"/>
     <use xlink:href="#DejaVuSans-72" x="222.851562"/>
    </g>
   </g>
   <g id="text_33">
    <!-- AlAu2Ti -->
    <g transform="translate(839.746826 262.259417)scale(0.1 -0.1)">
     <defs>
      <path id="DejaVuSans-75" d="M 544 1381 
L 544 3500 
L 1119 3500 
L 1119 1403 
Q 1119 906 1312 657 
Q 1506 409 1894 409 
Q 2359 409 2629 706 
Q 2900 1003 2900 1516 
L 2900 3500 
L 3475 3500 
L 3475 0 
L 2900 0 
L 2900 538 
Q 2691 219 2414 64 
Q 2138 -91 1772 -91 
Q 1169 -91 856 284 
Q 544 659 544 1381 
z
M 1991 3584 
L 1991 3584 
z
" transform="scale(0.015625)"/>
     </defs>
     <use xlink:href="#DejaVuSans-41"/>
     <use xlink:href="#DejaVuSans-6c" x="68.408203"/>
     <use xlink:href="#DejaVuSans-41" x="96.191406"/>
     <use xlink:href="#DejaVuSans-75" x="164.599609"/>
     <use xlink:href="#DejaVuSans-32" x="227.978516"/>
     <use xlink:href="#DejaVuSans-54" x="291.601562"/>
     <use xlink:href="#DejaVuSans-69" x="349.560547"/>
    </g>
   </g>
   <g id="text_34">
    <!-- AlAuTi -->
    <g transform="translate(748.942885 263.939915)scale(0.1 -0.1)">
     <use xlink:href="#DejaVuSans-41"/>
     <use xlink:href="#DejaVuSans-6c" x="68.408203"/>
     <use xlink:href="#DejaVuSans-41" x="96.191406"/>
     <use xlink:href="#DejaVuSans-75" x="164.599609"/>
     <use xlink:href="#DejaVuSans-54" x="227.978516"/>
     <use xlink:href="#DejaVuSans-69" x="285.9375"/>
    </g>
   </g>
   <g id="text_35">
    <!-- AlAuTi2 -->
    <g transform="translate(616.001749 399.584105)scale(0.1 -0.1)">
     <use xlink:href="#DejaVuSans-41"/>
     <use xlink:href="#DejaVuSans-6c" x="68.408203"/>
     <use xlink:href="#DejaVuSans-41" x="96.191406"/>
     <use xlink:href="#DejaVuSans-75" x="164.599609"/>
     <use xlink:href="#DejaVuSans-54" x="227.978516"/>
     <use xlink:href="#DejaVuSans-69" x="285.9375"/>
     <use xlink:href="#DejaVuSans-32" x="313.720703"/>
    </g>
   </g>
   <g id="text_36">
    <!-- AlB2Mg -->
    <g transform="translate(432.599371 146.452816)scale(0.1 -0.1)">
     <use xlink:href="#DejaVuSans-41"/>
     <use xlink:href="#DejaVuSans-6c" x="68.408203"/>
     <use xlink:href="#DejaVuSans-42" x="96.191406"/>
     <use xlink:href="#DejaVuSans-32" x="164.794922"/>
     <use xlink:href="#DejaVuSans-4d" x="228.417969"/>
     <use xlink:href="#DejaVuSans-67" x="314.697266"/>
    </g>
   </g>
   <g id="text_37">
    <!-- AlBeZr -->
    <g transform="translate(656.239268 244.280032)scale(0.1 -0.1)">
     <defs>
      <path id="DejaVuSans-65" d="M 3597 1894 
L 3597 1613 
L 953 1613 
Q 991 1019 1311 708 
Q 1631 397 2203 397 
Q 2534 397 2845 478 
Q 3156 559 3463 722 
L 3463 178 
Q 3153 47 2828 -22 
Q 2503 -91 2169 -91 
Q 1331 -91 842 396 
Q 353 884 353 1716 
Q 353 2575 817 3079 
Q 1281 3584 2069 3584 
Q 2775 3584 3186 3129 
Q 3597 2675 3597 1894 
z
M 3022 2063 
Q 3016 2534 2758 2815 
Q 2500 3097 2075 3097 
Q 1594 3097 1305 2825 
Q 1016 2553 972 2059 
L 3022 2063 
z
" transform="scale(0.015625)"/>
     </defs>
     <use xlink:href="#DejaVuSans-41"/>
     <use xlink:href="#DejaVuSans-6c" x="68.408203"/>
     <use xlink:href="#DejaVuSans-42" x="96.191406"/>
     <use xlink:href="#DejaVuSans-65" x="164.794922"/>
     <use xlink:href="#DejaVuSans-5a" x="226.318359"/>
     <use xlink:href="#DejaVuSans-72" x="294.824219"/>
    </g>
   </g>
   <g id="text_38">
    <!-- AlBBe -->
    <g transform="translate(277.820999 469.393207)scale(0.1 -0.1)">
     <use xlink:href="#DejaVuSans-41"/>
     <use xlink:href="#DejaVuSans-6c" x="68.408203"/>
     <use xlink:href="#DejaVuSans-42" x="96.191406"/>
     <use xlink:href="#DejaVuSans-42" x="164.794922"/>
     <use xlink:href="#DejaVuSans-65" x="233.398438"/>
    </g>
   </g>
   <g id="text_39">
    <!-- AlRh2Ti -->
    <g transform="translate(428.861581 396.573916)scale(0.1 -0.1)">
     <use xlink:href="#DejaVuSans-41"/>
     <use xlink:href="#DejaVuSans-6c" x="68.408203"/>
     <use xlink:href="#DejaVuSans-52" x="96.191406"/>
     <use xlink:href="#DejaVuSans-68" x="165.673828"/>
     <use xlink:href="#DejaVuSans-32" x="229.052734"/>
     <use xlink:href="#DejaVuSans-54" x="292.675781"/>
     <use xlink:href="#DejaVuSans-69" x="350.634766"/>
    </g>
   </g>
   <g id="text_40">
    <!-- GaRh2Ti -->
    <g transform="translate(679.72083 310.793609)scale(0.1 -0.1)">
     <use xlink:href="#DejaVuSans-47"/>
     <use xlink:href="#DejaVuSans-61" x="77.490234"/>
     <use xlink:href="#DejaVuSans-52" x="138.769531"/>
     <use xlink:href="#DejaVuSans-68" x="208.251953"/>
     <use xlink:href="#DejaVuSans-32" x="271.630859"/>
     <use xlink:href="#DejaVuSans-54" x="335.253906"/>
     <use xlink:href="#DejaVuSans-69" x="393.212891"/>
    </g>
   </g>
   <g id="text_41">
    <!-- AlTi2Zr -->
    <g transform="translate(264.821562 396.143309)scale(0.1 -0.1)">
     <use xlink:href="#DejaVuSans-41"/>
     <use xlink:href="#DejaVuSans-6c" x="68.408203"/>
     <use xlink:href="#DejaVuSans-54" x="96.191406"/>
     <use xlink:href="#DejaVuSans-69" x="154.150391"/>
     <use xlink:href="#DejaVuSans-32" x="181.933594"/>
     <use xlink:href="#DejaVuSans-5a" x="245.556641"/>
     <use xlink:href="#DejaVuSans-72" x="314.0625"/>
    </g>
   </g>
   <g id="text_42">
    <!-- AlAsB -->
    <g transform="translate(481.672411 209.22899)scale(0.1 -0.1)">
     <use xlink:href="#DejaVuSans-41"/>
     <use xlink:href="#DejaVuSans-6c" x="68.408203"/>
     <use xlink:href="#DejaVuSans-41" x="96.191406"/>
     <use xlink:href="#DejaVuSans-73" x="164.599609"/>
     <use xlink:href="#DejaVuSans-42" x="216.699219"/>
    </g>
   </g>
   <g id="text_43">
    <!-- AuGaTi -->
    <g transform="translate(563.104674 236.981085)scale(0.1 -0.1)">
     <use xlink:href="#DejaVuSans-41"/>
     <use xlink:href="#DejaVuSans-75" x="68.408203"/>
     <use xlink:href="#DejaVuSans-47" x="131.787109"/>
     <use xlink:href="#DejaVuSans-61" x="209.277344"/>
     <use xlink:href="#DejaVuSans-54" x="270.556641"/>
     <use xlink:href="#DejaVuSans-69" x="328.515625"/>
    </g>
   </g>
   <g id="text_44">
    <!-- AuGaZr -->
    <g transform="translate(488.675616 272.288443)scale(0.1 -0.1)">
     <use xlink:href="#DejaVuSans-41"/>
     <use xlink:href="#DejaVuSans-75" x="68.408203"/>
     <use xlink:href="#DejaVuSans-47" x="131.787109"/>
     <use xlink:href="#DejaVuSans-61" x="209.277344"/>
     <use xlink:href="#DejaVuSans-5a" x="270.556641"/>
     <use xlink:href="#DejaVuSans-72" x="339.0625"/>
    </g>
   </g>
   <g id="text_45">
    <!-- AlTiZr2 -->
    <g transform="translate(352.951925 218.152063)scale(0.1 -0.1)">
     <use xlink:href="#DejaVuSans-41"/>
     <use xlink:href="#DejaVuSans-6c" x="68.408203"/>
     <use xlink:href="#DejaVuSans-54" x="96.191406"/>
     <use xlink:href="#DejaVuSans-69" x="154.150391"/>
     <use xlink:href="#DejaVuSans-5a" x="181.933594"/>
     <use xlink:href="#DejaVuSans-72" x="250.439453"/>
     <use xlink:href="#DejaVuSans-32" x="291.552734"/>
    </g>
   </g>
   <g id="text_46">
    <!-- AlMg2Zn -->
    <g transform="translate(597.026988 458.436642)scale(0.1 -0.1)">
     <use xlink:href="#DejaVuSans-41"/>
     <use xlink:href="#DejaVuSans-6c" x="68.408203"/>
     <use xlink:href="#DejaVuSans-4d" x="96.191406"/>
     <use xlink:href="#DejaVuSans-67" x="182.470703"/>
     <use xlink:href="#DejaVuSans-32" x="245.947266"/>
     <use xlink:href="#DejaVuSans-5a" x="309.570312"/>
     <use xlink:href="#DejaVuSans-6e" x="378.076172"/>
    </g>
   </g>
   <g id="text_47">
    <!-- B2TiZn -->
    <g transform="translate(510.821804 439.064409)scale(0.1 -0.1)">
     <use xlink:href="#DejaVuSans-42"/>
     <use xlink:href="#DejaVuSans-32" x="68.603516"/>
     <use xlink:href="#DejaVuSans-54" x="132.226562"/>
     <use xlink:href="#DejaVuSans-69" x="190.185547"/>
     <use xlink:href="#DejaVuSans-5a" x="217.96875"/>
     <use xlink:href="#DejaVuSans-6e" x="286.474609"/>
    </g>
   </g>
   <g id="text_48">
    <!-- B2TiZr -->
    <g transform="translate(156.095764 324.410402)scale(0.1 -0.1)">
     <use xlink:href="#DejaVuSans-42"/>
     <use xlink:href="#DejaVuSans-32" x="68.603516"/>
     <use xlink:href="#DejaVuSans-54" x="132.226562"/>
     <use xlink:href="#DejaVuSans-69" x="190.185547"/>
     <use xlink:href="#DejaVuSans-5a" x="217.96875"/>
     <use xlink:href="#DejaVuSans-72" x="286.474609"/>
    </g>
   </g>
   <g id="text_49">
    <!-- BMnZr2 -->
    <g transform="translate(397.519228 283.936336)scale(0.1 -0.1)">
     <use xlink:href="#DejaVuSans-42"/>
     <use xlink:href="#DejaVuSans-4d" x="68.603516"/>
     <use xlink:href="#DejaVuSans-6e" x="154.882812"/>
     <use xlink:href="#DejaVuSans-5a" x="218.261719"/>
     <use xlink:href="#DejaVuSans-72" x="286.767578"/>
     <use xlink:href="#DejaVuSans-32" x="327.880859"/>
    </g>
   </g>
   <g id="text_50">
    <!-- GaMn2Zr -->
    <g transform="translate(337.861103 340.107551)scale(0.1 -0.1)">
     <use xlink:href="#DejaVuSans-47"/>
     <use xlink:href="#DejaVuSans-61" x="77.490234"/>
     <use xlink:href="#DejaVuSans-4d" x="138.769531"/>
     <use xlink:href="#DejaVuSans-6e" x="225.048828"/>
     <use xlink:href="#DejaVuSans-32" x="288.427734"/>
     <use xlink:href="#DejaVuSans-5a" x="352.050781"/>
     <use xlink:href="#DejaVuSans-72" x="420.556641"/>
    </g>
   </g>
   <g id="text_51">
    <!-- AlRhTi2 -->
    <g transform="translate(527.078648 379.405968)scale(0.1 -0.1)">
     <use xlink:href="#DejaVuSans-41"/>
     <use xlink:href="#DejaVuSans-6c" x="68.408203"/>
     <use xlink:href="#DejaVuSans-52" x="96.191406"/>
     <use xlink:href="#DejaVuSans-68" x="165.673828"/>
     <use xlink:href="#DejaVuSans-54" x="229.052734"/>
     <use xlink:href="#DejaVuSans-69" x="287.011719"/>
     <use xlink:href="#DejaVuSans-32" x="314.794922"/>
    </g>
   </g>
   <g id="text_52">
    <!-- GaRhTi2 -->
    <g transform="translate(442.696489 339.394872)scale(0.1 -0.1)">
     <use xlink:href="#DejaVuSans-47"/>
     <use xlink:href="#DejaVuSans-61" x="77.490234"/>
     <use xlink:href="#DejaVuSans-52" x="138.769531"/>
     <use xlink:href="#DejaVuSans-68" x="208.251953"/>
     <use xlink:href="#DejaVuSans-54" x="271.630859"/>
     <use xlink:href="#DejaVuSans-69" x="329.589844"/>
     <use xlink:href="#DejaVuSans-32" x="357.373047"/>
    </g>
   </g>
   <g id="text_53">
    <!-- Compounds by Element Groups -->
    <g transform="translate(491.892159 43.05)scale(0.12 -0.12)">
     <defs>
      <path id="DejaVuSans-43" d="M 4122 4306 
L 4122 3641 
Q 3803 3938 3442 4084 
Q 3081 4231 2675 4231 
Q 1875 4231 1450 3742 
Q 1025 3253 1025 2328 
Q 1025 1406 1450 917 
Q 1875 428 2675 428 
Q 3081 428 3442 575 
Q 3803 722 4122 1019 
L 4122 359 
Q 3791 134 3420 21 
Q 3050 -91 2638 -91 
Q 1578 -91 968 557 
Q 359 1206 359 2328 
Q 359 3453 968 4101 
Q 1578 4750 2638 4750 
Q 3056 4750 3426 4639 
Q 3797 4528 4122 4306 
z
" transform="scale(0.015625)"/>
      <path id="DejaVuSans-6f" d="M 1959 3097 
Q 1497 3097 1228 2736 
Q 959 2375 959 1747 
Q 959 1119 1226 758 
Q 1494 397 1959 397 
Q 2419 397 2687 759 
Q 2956 1122 2956 1747 
Q 2956 2369 2687 2733 
Q 2419 3097 1959 3097 
z
M 1959 3584 
Q 2709 3584 3137 3096 
Q 3566 2609 3566 1747 
Q 3566 888 3137 398 
Q 2709 -91 1959 -91 
Q 1206 -91 779 398 
Q 353 888 353 1747 
Q 353 2609 779 3096 
Q 1206 3584 1959 3584 
z
" transform="scale(0.015625)"/>
      <path id="DejaVuSans-6d" d="M 3328 2828 
Q 3544 3216 3844 3400 
Q 4144 3584 4550 3584 
Q 5097 3584 5394 3201 
Q 5691 2819 5691 2113 
L 5691 0 
L 5113 0 
L 5113 2094 
Q 5113 2597 4934 2840 
Q 4756 3084 4391 3084 
Q 3944 3084 3684 2787 
Q 3425 2491 3425 1978 
L 3425 0 
L 2847 0 
L 2847 2094 
Q 2847 2600 2669 2842 
Q 2491 3084 2119 3084 
Q 1678 3084 1418 2786 
Q 1159 2488 1159 1978 
L 1159 0 
L 581 0 
L 581 3500 
L 1159 3500 
L 1159 2956 
Q 1356 3278 1631 3431 
Q 1906 3584 2284 3584 
Q 2666 3584 2933 3390 
Q 3200 3197 3328 2828 
z
" transform="scale(0.015625)"/>
      <path id="DejaVuSans-70" d="M 1159 525 
L 1159 -1331 
L 581 -1331 
L 581 3500 
L 1159 3500 
L 1159 2969 
Q 1341 3281 1617 3432 
Q 1894 3584 2278 3584 
Q 2916 3584 3314 3078 
Q 3713 2572 3713 1747 
Q 3713 922 3314 415 
Q 2916 -91 2278 -91 
Q 1894 -91 1617 61 
Q 1341 213 1159 525 
z
M 3116 1747 
Q 3116 2381 2855 2742 
Q 2594 3103 2138 3103 
Q 1681 3103 1420 2742 
Q 1159 2381 1159 1747 
Q 1159 1113 1420 752 
Q 1681 391 2138 391 
Q 2594 391 2855 752 
Q 3116 1113 3116 1747 
z
" transform="scale(0.015625)"/>
      <path id="DejaVuSans-64" d="M 2906 2969 
L 2906 4863 
L 3481 4863 
L 3481 0 
L 2906 0 
L 2906 525 
Q 2725 213 2448 61 
Q 2172 -91 1784 -91 
Q 1150 -91 751 415 
Q 353 922 353 1747 
Q 353 2572 751 3078 
Q 1150 3584 1784 3584 
Q 2172 3584 2448 3432 
Q 2725 3281 2906 2969 
z
M 947 1747 
Q 947 1113 1208 752 
Q 1469 391 1925 391 
Q 2381 391 2643 752 
Q 2906 1113 2906 1747 
Q 2906 2381 2643 2742 
Q 2381 3103 1925 3103 
Q 1469 3103 1208 2742 
Q 947 2381 947 1747 
z
" transform="scale(0.015625)"/>
      <path id="DejaVuSans-20" transform="scale(0.015625)"/>
      <path id="DejaVuSans-62" d="M 3116 1747 
Q 3116 2381 2855 2742 
Q 2594 3103 2138 3103 
Q 1681 3103 1420 2742 
Q 1159 2381 1159 1747 
Q 1159 1113 1420 752 
Q 1681 391 2138 391 
Q 2594 391 2855 752 
Q 3116 1113 3116 1747 
z
M 1159 2969 
Q 1341 3281 1617 3432 
Q 1894 3584 2278 3584 
Q 2916 3584 3314 3078 
Q 3713 2572 3713 1747 
Q 3713 922 3314 415 
Q 2916 -91 2278 -91 
Q 1894 -91 1617 61 
Q 1341 213 1159 525 
L 1159 0 
L 581 0 
L 581 4863 
L 1159 4863 
L 1159 2969 
z
" transform="scale(0.015625)"/>
      <path id="DejaVuSans-79" d="M 2059 -325 
Q 1816 -950 1584 -1140 
Q 1353 -1331 966 -1331 
L 506 -1331 
L 506 -850 
L 844 -850 
Q 1081 -850 1212 -737 
Q 1344 -625 1503 -206 
L 1606 56 
L 191 3500 
L 800 3500 
L 1894 763 
L 2988 3500 
L 3597 3500 
L 2059 -325 
z
" transform="scale(0.015625)"/>
      <path id="DejaVuSans-45" d="M 628 4666 
L 3578 4666 
L 3578 4134 
L 1259 4134 
L 1259 2753 
L 3481 2753 
L 3481 2222 
L 1259 2222 
L 1259 531 
L 3634 531 
L 3634 0 
L 628 0 
L 628 4666 
z
" transform="scale(0.015625)"/>
      <path id="DejaVuSans-74" d="M 1172 4494 
L 1172 3500 
L 2356 3500 
L 2356 3053 
L 1172 3053 
L 1172 1153 
Q 1172 725 1289 603 
Q 1406 481 1766 481 
L 2356 481 
L 2356 0 
L 1766 0 
Q 1100 0 847 248 
Q 594 497 594 1153 
L 594 3053 
L 172 3053 
L 172 3500 
L 594 3500 
L 594 4494 
L 1172 4494 
z
" transform="scale(0.015625)"/>
     </defs>
     <use xlink:href="#DejaVuSans-43"/>
     <use xlink:href="#DejaVuSans-6f" x="69.824219"/>
     <use xlink:href="#DejaVuSans-6d" x="131.005859"/>
     <use xlink:href="#DejaVuSans-70" x="228.417969"/>
     <use xlink:href="#DejaVuSans-6f" x="291.894531"/>
     <use xlink:href="#DejaVuSans-75" x="353.076172"/>
     <use xlink:href="#DejaVuSans-6e" x="416.455078"/>
     <use xlink:href="#DejaVuSans-64" x="479.833984"/>
     <use xlink:href="#DejaVuSans-73" x="543.310547"/>
     <use xlink:href="#DejaVuSans-20" x="595.410156"/>
     <use xlink:href="#DejaVuSans-62" x="627.197266"/>
     <use xlink:href="#DejaVuSans-79" x="690.673828"/>
     <use xlink:href="#DejaVuSans-20" x="749.853516"/>
     <use xlink:href="#DejaVuSans-45" x="781.640625"/>
     <use xlink:href="#DejaVuSans-6c" x="844.824219"/>
     <use xlink:href="#DejaVuSans-65" x="872.607422"/>
     <use xlink:href="#DejaVuSans-6d" x="934.130859"/>
     <use xlink:href="#DejaVuSans-65" x="1031.542969"/>
     <use xlink:href="#DejaVuSans-6e" x="1093.066406"/>
     <use xlink:href="#DejaVuSans-74" x="1156.445312"/>
     <use xlink:href="#DejaVuSans-20" x="1195.654297"/>
     <use xlink:href="#DejaVuSans-47" x="1227.441406"/>
     <use xlink:href="#DejaVuSans-72" x="1304.931641"/>
     <use xlink:href="#DejaVuSans-6f" x="1343.794922"/>
     <use xlink:href="#DejaVuSans-75" x="1404.976562"/>
     <use xlink:href="#DejaVuSans-70" x="1468.355469"/>
     <use xlink:href="#DejaVuSans-73" x="1531.832031"/>
    </g>
   </g>
   <g id="legend_1">
    <g id="patch_7">
     <path d="M 976.453693 218.509375 
L 1053.844318 218.509375 
Q 1055.844318 218.509375 1055.844318 216.509375 
L 1055.844318 56.05 
Q 1055.844318 54.05 1053.844318 54.05 
L 976.453693 54.05 
Q 974.453693 54.05 974.453693 56.05 
L 974.453693 216.509375 
Q 974.453693 218.509375 976.453693 218.509375 
z
" style="fill: #ffffff; opacity: 0.8; stroke: #cccccc; stroke-linejoin: miter"/>
    </g>
    <g id="text_54">
     <!-- Types -->
     <g transform="translate(1001.061506 65.648437)scale(0.1 -0.1)">
      <use xlink:href="#DejaVuSans-54"/>
      <use xlink:href="#DejaVuSans-79" x="45.458984"/>
      <use xlink:href="#DejaVuSans-70" x="104.638672"/>
      <use xlink:href="#DejaVuSans-65" x="168.115234"/>
      <use xlink:href="#DejaVuSans-73" x="229.638672"/>
     </g>
    </g>
    <g id="line2d_12">
     <path d="M 978.453693 76.826562 
L 988.453693 76.826562 
L 998.453693 76.826562 
" style="fill: none; stroke: #ffffff; stroke-width: 1.5; stroke-linecap: square"/>
     <defs>
      <path id="me15055681d" d="M 0 7.5 
C 1.989023 7.5 3.896849 6.709753 5.303301 5.303301 
C 6.709753 3.896849 7.5 1.989023 7.5 0 
C 7.5 -1.989023 6.709753 -3.896849 5.303301 -5.303301 
C 3.896849 -6.709753 1.989023 -7.5 0 -7.5 
C -1.989023 -7.5 -3.896849 -6.709753 -5.303301 -5.303301 
C -6.709753 -3.896849 -7.5 -1.989023 -7.5 0 
C -7.5 1.989023 -6.709753 3.896849 -5.303301 5.303301 
C -3.896849 6.709753 -1.989023 7.5 0 7.5 
z
" style="stroke: #ffffff"/>
     </defs>
     <g>
      <use xlink:href="#me15055681d" x="988.453693" y="76.826562" style="fill: #1f77b4; stroke: #ffffff"/>
     </g>
    </g>
    <g id="text_55">
     <!-- 4-11-13 -->
     <g transform="translate(1006.453693 80.326562)scale(0.1 -0.1)">
      <defs>
       <path id="DejaVuSans-34" d="M 2419 4116 
L 825 1625 
L 2419 1625 
L 2419 4116 
z
M 2253 4666 
L 3047 4666 
L 3047 1625 
L 3713 1625 
L 3713 1100 
L 3047 1100 
L 3047 0 
L 2419 0 
L 2419 1100 
L 313 1100 
L 313 1709 
L 2253 4666 
z
" transform="scale(0.015625)"/>
       <path id="DejaVuSans-2d" d="M 313 2009 
L 1997 2009 
L 1997 1497 
L 313 1497 
L 313 2009 
z
" transform="scale(0.015625)"/>
       <path id="DejaVuSans-33" d="M 2597 2516 
Q 3050 2419 3304 2112 
Q 3559 1806 3559 1356 
Q 3559 666 3084 287 
Q 2609 -91 1734 -91 
Q 1441 -91 1130 -33 
Q 819 25 488 141 
L 488 750 
Q 750 597 1062 519 
Q 1375 441 1716 441 
Q 2309 441 2620 675 
Q 2931 909 2931 1356 
Q 2931 1769 2642 2001 
Q 2353 2234 1838 2234 
L 1294 2234 
L 1294 2753 
L 1863 2753 
Q 2328 2753 2575 2939 
Q 2822 3125 2822 3475 
Q 2822 3834 2567 4026 
Q 2313 4219 1838 4219 
Q 1578 4219 1281 4162 
Q 984 4106 628 3988 
L 628 4550 
Q 988 4650 1302 4700 
Q 1616 4750 1894 4750 
Q 2613 4750 3031 4423 
Q 3450 4097 3450 3541 
Q 3450 3153 3228 2886 
Q 3006 2619 2597 2516 
z
" transform="scale(0.015625)"/>
      </defs>
      <use xlink:href="#DejaVuSans-34"/>
      <use xlink:href="#DejaVuSans-2d" x="63.623047"/>
      <use xlink:href="#DejaVuSans-31" x="99.707031"/>
      <use xlink:href="#DejaVuSans-31" x="163.330078"/>
      <use xlink:href="#DejaVuSans-2d" x="226.953125"/>
      <use xlink:href="#DejaVuSans-31" x="263.037109"/>
      <use xlink:href="#DejaVuSans-33" x="326.660156"/>
     </g>
    </g>
    <g id="line2d_13">
     <path d="M 978.453693 91.504687 
L 988.453693 91.504687 
L 998.453693 91.504687 
" style="fill: none; stroke: #ffffff; stroke-width: 1.5; stroke-linecap: square"/>
     <defs>
      <path id="m977aa546f3" d="M 0 7.5 
C 1.989023 7.5 3.896849 6.709753 5.303301 5.303301 
C 6.709753 3.896849 7.5 1.989023 7.5 0 
C 7.5 -1.989023 6.709753 -3.896849 5.303301 -5.303301 
C 3.896849 -6.709753 1.989023 -7.5 0 -7.5 
C -1.989023 -7.5 -3.896849 -6.709753 -5.303301 -5.303301 
C -6.709753 -3.896849 -7.5 -1.989023 -7.5 0 
C -7.5 1.989023 -6.709753 3.896849 -5.303301 5.303301 
C -3.896849 6.709753 -1.989023 7.5 0 7.5 
z
" style="stroke: #ffffff"/>
     </defs>
     <g>
      <use xlink:href="#m977aa546f3" x="988.453693" y="91.504687" style="fill: #ff7f0e; stroke: #ffffff"/>
     </g>
    </g>
    <g id="text_56">
     <!-- 4-9-13 -->
     <g transform="translate(1006.453693 95.004687)scale(0.1 -0.1)">
      <defs>
       <path id="DejaVuSans-39" d="M 703 97 
L 703 672 
Q 941 559 1184 500 
Q 1428 441 1663 441 
Q 2288 441 2617 861 
Q 2947 1281 2994 2138 
Q 2813 1869 2534 1725 
Q 2256 1581 1919 1581 
Q 1219 1581 811 2004 
Q 403 2428 403 3163 
Q 403 3881 828 4315 
Q 1253 4750 1959 4750 
Q 2769 4750 3195 4129 
Q 3622 3509 3622 2328 
Q 3622 1225 3098 567 
Q 2575 -91 1691 -91 
Q 1453 -91 1209 -44 
Q 966 3 703 97 
z
M 1959 2075 
Q 2384 2075 2632 2365 
Q 2881 2656 2881 3163 
Q 2881 3666 2632 3958 
Q 2384 4250 1959 4250 
Q 1534 4250 1286 3958 
Q 1038 3666 1038 3163 
Q 1038 2656 1286 2365 
Q 1534 2075 1959 2075 
z
" transform="scale(0.015625)"/>
      </defs>
      <use xlink:href="#DejaVuSans-34"/>
      <use xlink:href="#DejaVuSans-2d" x="63.623047"/>
      <use xlink:href="#DejaVuSans-39" x="99.707031"/>
      <use xlink:href="#DejaVuSans-2d" x="163.330078"/>
      <use xlink:href="#DejaVuSans-31" x="199.414062"/>
      <use xlink:href="#DejaVuSans-33" x="263.037109"/>
     </g>
    </g>
    <g id="line2d_14">
     <path d="M 978.453693 106.182812 
L 988.453693 106.182812 
L 998.453693 106.182812 
" style="fill: none; stroke: #ffffff; stroke-width: 1.5; stroke-linecap: square"/>
     <defs>
      <path id="m814006fab9" d="M 0 7.5 
C 1.989023 7.5 3.896849 6.709753 5.303301 5.303301 
C 6.709753 3.896849 7.5 1.989023 7.5 0 
C 7.5 -1.989023 6.709753 -3.896849 5.303301 -5.303301 
C 3.896849 -6.709753 1.989023 -7.5 0 -7.5 
C -1.989023 -7.5 -3.896849 -6.709753 -5.303301 -5.303301 
C -6.709753 -3.896849 -7.5 -1.989023 -7.5 0 
C -7.5 1.989023 -6.709753 3.896849 -5.303301 5.303301 
C -3.896849 6.709753 -1.989023 7.5 0 7.5 
z
" style="stroke: #ffffff"/>
     </defs>
     <g>
      <use xlink:href="#m814006fab9" x="988.453693" y="106.182812" style="fill: #2ca02c; stroke: #ffffff"/>
     </g>
    </g>
    <g id="text_57">
     <!-- 4-4-13 -->
     <g transform="translate(1006.453693 109.682812)scale(0.1 -0.1)">
      <use xlink:href="#DejaVuSans-34"/>
      <use xlink:href="#DejaVuSans-2d" x="63.623047"/>
      <use xlink:href="#DejaVuSans-34" x="99.707031"/>
      <use xlink:href="#DejaVuSans-2d" x="163.330078"/>
      <use xlink:href="#DejaVuSans-31" x="199.414062"/>
      <use xlink:href="#DejaVuSans-33" x="263.037109"/>
     </g>
    </g>
    <g id="line2d_15">
     <path d="M 978.453693 120.860937 
L 988.453693 120.860937 
L 998.453693 120.860937 
" style="fill: none; stroke: #ffffff; stroke-width: 1.5; stroke-linecap: square"/>
     <defs>
      <path id="m482183211a" d="M 0 7.5 
C 1.989023 7.5 3.896849 6.709753 5.303301 5.303301 
C 6.709753 3.896849 7.5 1.989023 7.5 0 
C 7.5 -1.989023 6.709753 -3.896849 5.303301 -5.303301 
C 3.896849 -6.709753 1.989023 -7.5 0 -7.5 
C -1.989023 -7.5 -3.896849 -6.709753 -5.303301 -5.303301 
C -6.709753 -3.896849 -7.5 -1.989023 -7.5 0 
C -7.5 1.989023 -6.709753 3.896849 -5.303301 5.303301 
C -3.896849 6.709753 -1.989023 7.5 0 7.5 
z
" style="stroke: #ffffff"/>
     </defs>
     <g>
      <use xlink:href="#m482183211a" x="988.453693" y="120.860937" style="fill: #d62728; stroke: #ffffff"/>
     </g>
    </g>
    <g id="text_58">
     <!-- 15-13-13 -->
     <g transform="translate(1006.453693 124.360937)scale(0.1 -0.1)">
      <use xlink:href="#DejaVuSans-31"/>
      <use xlink:href="#DejaVuSans-35" x="63.623047"/>
      <use xlink:href="#DejaVuSans-2d" x="127.246094"/>
      <use xlink:href="#DejaVuSans-31" x="163.330078"/>
      <use xlink:href="#DejaVuSans-33" x="226.953125"/>
      <use xlink:href="#DejaVuSans-2d" x="290.576172"/>
      <use xlink:href="#DejaVuSans-31" x="326.660156"/>
      <use xlink:href="#DejaVuSans-33" x="390.283203"/>
     </g>
    </g>
    <g id="line2d_16">
     <path d="M 978.453693 135.539062 
L 988.453693 135.539062 
L 998.453693 135.539062 
" style="fill: none; stroke: #ffffff; stroke-width: 1.5; stroke-linecap: square"/>
     <defs>
      <path id="mc90beffb54" d="M 0 7.5 
C 1.989023 7.5 3.896849 6.709753 5.303301 5.303301 
C 6.709753 3.896849 7.5 1.989023 7.5 0 
C 7.5 -1.989023 6.709753 -3.896849 5.303301 -5.303301 
C 3.896849 -6.709753 1.989023 -7.5 0 -7.5 
C -1.989023 -7.5 -3.896849 -6.709753 -5.303301 -5.303301 
C -6.709753 -3.896849 -7.5 -1.989023 -7.5 0 
C -7.5 1.989023 -6.709753 3.896849 -5.303301 5.303301 
C -3.896849 6.709753 -1.989023 7.5 0 7.5 
z
" style="stroke: #ffffff"/>
     </defs>
     <g>
      <use xlink:href="#mc90beffb54" x="988.453693" y="135.539062" style="fill: #9467bd; stroke: #ffffff"/>
     </g>
    </g>
    <g id="text_59">
     <!-- 15-7-13 -->
     <g transform="translate(1006.453693 139.039062)scale(0.1 -0.1)">
      <defs>
       <path id="DejaVuSans-37" d="M 525 4666 
L 3525 4666 
L 3525 4397 
L 1831 0 
L 1172 0 
L 2766 4134 
L 525 4134 
L 525 4666 
z
" transform="scale(0.015625)"/>
      </defs>
      <use xlink:href="#DejaVuSans-31"/>
      <use xlink:href="#DejaVuSans-35" x="63.623047"/>
      <use xlink:href="#DejaVuSans-2d" x="127.246094"/>
      <use xlink:href="#DejaVuSans-37" x="163.330078"/>
      <use xlink:href="#DejaVuSans-2d" x="226.953125"/>
      <use xlink:href="#DejaVuSans-31" x="263.037109"/>
      <use xlink:href="#DejaVuSans-33" x="326.660156"/>
     </g>
    </g>
    <g id="line2d_17">
     <path d="M 978.453693 150.217187 
L 988.453693 150.217187 
L 998.453693 150.217187 
" style="fill: none; stroke: #ffffff; stroke-width: 1.5; stroke-linecap: square"/>
     <defs>
      <path id="mf232f48d29" d="M 0 7.5 
C 1.989023 7.5 3.896849 6.709753 5.303301 5.303301 
C 6.709753 3.896849 7.5 1.989023 7.5 0 
C 7.5 -1.989023 6.709753 -3.896849 5.303301 -5.303301 
C 3.896849 -6.709753 1.989023 -7.5 0 -7.5 
C -1.989023 -7.5 -3.896849 -6.709753 -5.303301 -5.303301 
C -6.709753 -3.896849 -7.5 -1.989023 -7.5 0 
C -7.5 1.989023 -6.709753 3.896849 -5.303301 5.303301 
C -3.896849 6.709753 -1.989023 7.5 0 7.5 
z
" style="stroke: #ffffff"/>
     </defs>
     <g>
      <use xlink:href="#mf232f48d29" x="988.453693" y="150.217187" style="fill: #8c564b; stroke: #ffffff"/>
     </g>
    </g>
    <g id="text_60">
     <!-- 13-2-13 -->
     <g transform="translate(1006.453693 153.717187)scale(0.1 -0.1)">
      <use xlink:href="#DejaVuSans-31"/>
      <use xlink:href="#DejaVuSans-33" x="63.623047"/>
      <use xlink:href="#DejaVuSans-2d" x="127.246094"/>
      <use xlink:href="#DejaVuSans-32" x="163.330078"/>
      <use xlink:href="#DejaVuSans-2d" x="226.953125"/>
      <use xlink:href="#DejaVuSans-31" x="263.037109"/>
      <use xlink:href="#DejaVuSans-33" x="326.660156"/>
     </g>
    </g>
    <g id="line2d_18">
     <path d="M 978.453693 164.895312 
L 988.453693 164.895312 
L 998.453693 164.895312 
" style="fill: none; stroke: #ffffff; stroke-width: 1.5; stroke-linecap: square"/>
     <defs>
      <path id="m492463c378" d="M 0 7.5 
C 1.989023 7.5 3.896849 6.709753 5.303301 5.303301 
C 6.709753 3.896849 7.5 1.989023 7.5 0 
C 7.5 -1.989023 6.709753 -3.896849 5.303301 -5.303301 
C 3.896849 -6.709753 1.989023 -7.5 0 -7.5 
C -1.989023 -7.5 -3.896849 -6.709753 -5.303301 -5.303301 
C -6.709753 -3.896849 -7.5 -1.989023 -7.5 0 
C -7.5 1.989023 -6.709753 3.896849 -5.303301 5.303301 
C -3.896849 6.709753 -1.989023 7.5 0 7.5 
z
" style="stroke: #ffffff"/>
     </defs>
     <g>
      <use xlink:href="#m492463c378" x="988.453693" y="164.895312" style="fill: #e377c2; stroke: #ffffff"/>
     </g>
    </g>
    <g id="text_61">
     <!-- 7-4-13 -->
     <g transform="translate(1006.453693 168.395312)scale(0.1 -0.1)">
      <use xlink:href="#DejaVuSans-37"/>
      <use xlink:href="#DejaVuSans-2d" x="63.623047"/>
      <use xlink:href="#DejaVuSans-34" x="99.707031"/>
      <use xlink:href="#DejaVuSans-2d" x="163.330078"/>
      <use xlink:href="#DejaVuSans-31" x="199.414062"/>
      <use xlink:href="#DejaVuSans-33" x="263.037109"/>
     </g>
    </g>
    <g id="line2d_19">
     <path d="M 978.453693 179.573437 
L 988.453693 179.573437 
L 998.453693 179.573437 
" style="fill: none; stroke: #ffffff; stroke-width: 1.5; stroke-linecap: square"/>
     <defs>
      <path id="m46d3579b79" d="M 0 7.5 
C 1.989023 7.5 3.896849 6.709753 5.303301 5.303301 
C 6.709753 3.896849 7.5 1.989023 7.5 0 
C 7.5 -1.989023 6.709753 -3.896849 5.303301 -5.303301 
C 3.896849 -6.709753 1.989023 -7.5 0 -7.5 
C -1.989023 -7.5 -3.896849 -6.709753 -5.303301 -5.303301 
C -6.709753 -3.896849 -7.5 -1.989023 -7.5 0 
C -7.5 1.989023 -6.709753 3.896849 -5.303301 5.303301 
C -3.896849 6.709753 -1.989023 7.5 0 7.5 
z
" style="stroke: #ffffff"/>
     </defs>
     <g>
      <use xlink:href="#m46d3579b79" x="988.453693" y="179.573437" style="fill: #7f7f7f; stroke: #ffffff"/>
     </g>
    </g>
    <g id="text_62">
     <!-- 12-2-13 -->
     <g transform="translate(1006.453693 183.073437)scale(0.1 -0.1)">
      <use xlink:href="#DejaVuSans-31"/>
      <use xlink:href="#DejaVuSans-32" x="63.623047"/>
      <use xlink:href="#DejaVuSans-2d" x="127.246094"/>
      <use xlink:href="#DejaVuSans-32" x="163.330078"/>
      <use xlink:href="#DejaVuSans-2d" x="226.953125"/>
      <use xlink:href="#DejaVuSans-31" x="263.037109"/>
      <use xlink:href="#DejaVuSans-33" x="326.660156"/>
     </g>
    </g>
    <g id="line2d_20">
     <path d="M 978.453693 194.251562 
L 988.453693 194.251562 
L 998.453693 194.251562 
" style="fill: none; stroke: #ffffff; stroke-width: 1.5; stroke-linecap: square"/>
     <defs>
      <path id="m78f1f8d73c" d="M 0 7.5 
C 1.989023 7.5 3.896849 6.709753 5.303301 5.303301 
C 6.709753 3.896849 7.5 1.989023 7.5 0 
C 7.5 -1.989023 6.709753 -3.896849 5.303301 -5.303301 
C 3.896849 -6.709753 1.989023 -7.5 0 -7.5 
C -1.989023 -7.5 -3.896849 -6.709753 -5.303301 -5.303301 
C -6.709753 -3.896849 -7.5 -1.989023 -7.5 0 
C -7.5 1.989023 -6.709753 3.896849 -5.303301 5.303301 
C -3.896849 6.709753 -1.989023 7.5 0 7.5 
z
" style="stroke: #ffffff"/>
     </defs>
     <g>
      <use xlink:href="#m78f1f8d73c" x="988.453693" y="194.251562" style="fill: #bcbd22; stroke: #ffffff"/>
     </g>
    </g>
    <g id="text_63">
     <!-- 4-2-13 -->
     <g transform="translate(1006.453693 197.751562)scale(0.1 -0.1)">
      <use xlink:href="#DejaVuSans-34"/>
      <use xlink:href="#DejaVuSans-2d" x="63.623047"/>
      <use xlink:href="#DejaVuSans-32" x="99.707031"/>
      <use xlink:href="#DejaVuSans-2d" x="163.330078"/>
      <use xlink:href="#DejaVuSans-31" x="199.414062"/>
      <use xlink:href="#DejaVuSans-33" x="263.037109"/>
     </g>
    </g>
    <g id="line2d_21">
     <path d="M 978.453693 208.929687 
L 988.453693 208.929687 
L 998.453693 208.929687 
" style="fill: none; stroke: #ffffff; stroke-width: 1.5; stroke-linecap: square"/>
     <defs>
      <path id="mab1f871df2" d="M 0 7.5 
C 1.989023 7.5 3.896849 6.709753 5.303301 5.303301 
C 6.709753 3.896849 7.5 1.989023 7.5 0 
C 7.5 -1.989023 6.709753 -3.896849 5.303301 -5.303301 
C 3.896849 -6.709753 1.989023 -7.5 0 -7.5 
C -1.989023 -7.5 -3.896849 -6.709753 -5.303301 -5.303301 
C -6.709753 -3.896849 -7.5 -1.989023 -7.5 0 
C -7.5 1.989023 -6.709753 3.896849 -5.303301 5.303301 
C -3.896849 6.709753 -1.989023 7.5 0 7.5 
z
" style="stroke: #ffffff"/>
     </defs>
     <g>
      <use xlink:href="#mab1f871df2" x="988.453693" y="208.929687" style="fill: #17becf; stroke: #ffffff"/>
     </g>
    </g>
    <g id="text_64">
     <!-- 4-12-13 -->
     <g transform="translate(1006.453693 212.429687)scale(0.1 -0.1)">
      <use xlink:href="#DejaVuSans-34"/>
      <use xlink:href="#DejaVuSans-2d" x="63.623047"/>
      <use xlink:href="#DejaVuSans-31" x="99.707031"/>
      <use xlink:href="#DejaVuSans-32" x="163.330078"/>
      <use xlink:href="#DejaVuSans-2d" x="226.953125"/>
      <use xlink:href="#DejaVuSans-31" x="263.037109"/>
      <use xlink:href="#DejaVuSans-33" x="326.660156"/>
     </g>
    </g>
   </g>
  </g>
 </g>
 <defs>
  <clipPath id="pb3acef35be">
   <rect x="113.0125" y="49.05" width="947.831818" height="546.675"/>
  </clipPath>
 </defs>
</svg>
